<?xml version="1.0" encoding="utf-8"?>
<!-- Generator: Adobe Illustrator 26.3.0, SVG Export Plug-In . SVG Version: 6.00 Build 0)  -->
<svg version="1.1" id="Layer_1" xmlns="http://www.w3.org/2000/svg" xmlns:xlink="http://www.w3.org/1999/xlink" x="0px" y="0px"
	 viewBox="0 0 1621.6 489" style="enable-background:new 0 0 1621.6 489;" xml:space="preserve">
<style type="text/css">
	.st0{fill-rule:evenodd;clip-rule:evenodd;fill:#FF9900;}
	.st1{fill-rule:evenodd;clip-rule:evenodd;fill:#FFFFFF;}
</style>
<g>
	<path class="st0" d="M1006,382.3c-94.2,69.5-230.8,106.5-348.4,106.5c-164.9,0-313.3-61-425.6-162.4c-8.8-8-0.9-18.8,9.7-12.6
		c121.2,70.5,271,112.9,425.8,112.9c104.4,0,219.2-21.6,324.8-66.4C1008.2,353.5,1021.6,370.7,1006,382.3"/>
	<path class="st0" d="M1045.2,337.5c-12-15.4-79.6-7.3-110-3.7c-9.2,1.1-10.7-6.9-2.3-12.7c53.9-37.9,142.2-27,152.5-14.3
		c10.3,12.8-2.7,101.4-53.3,143.6c-7.8,6.5-15.2,3-11.7-5.6C1031.7,416.6,1057.2,353,1045.2,337.5"/>
	<path class="st1" d="M937.3,53.5V16.7c0-5.6,4.2-9.3,9.3-9.3h165c5.3,0,9.5,3.8,9.5,9.3v31.6c-0.1,5.3-4.5,12.2-12.4,23.2
		l-85.5,122c31.8-0.8,65.3,4,94.1,20.2c6.5,3.7,8.3,9,8.8,14.3v39.3c0,5.4-5.9,11.6-12.1,8.4c-50.8-26.6-118.2-29.5-174.3,0.3
		c-5.7,3.1-11.7-3.1-11.7-8.5v-37.3c0-6,0.1-16.2,6.1-25.3l99-142h-86.2C941.5,62.8,937.3,59,937.3,53.5 M335.6,283.4h-50.2
		c-4.8-0.4-8.6-4-9-8.5V17.3c0-5.2,4.3-9.2,9.7-9.2h46.8c4.9,0.2,8.8,4,9.1,8.6v33.7h0.9C355.1,17.8,378.1,2.6,409,2.6
		c31.4,0,51,15.2,65.1,47.7c12.1-32.5,39.7-47.7,69.3-47.7c21,0,44,8.7,58.1,28.2c15.9,21.7,12.6,53.2,12.6,80.8L614,274.2
		c0,5.2-4.3,9.3-9.7,9.3h-50.1c-5-0.4-9-4.4-9-9.3V137.6c0-10.9,1-38-1.4-48.3c-3.7-17.3-15-22.2-29.5-22.2
		c-12.1,0-24.8,8.1-30,21.1s-4.7,34.7-4.7,49.3V274c0,5.2-4.3,9.3-9.7,9.3h-50.1c-5.1-0.4-9-4.4-9-9.3l-0.1-136.5
		c0-28.7,4.7-71-30.9-71c-36.1,0-34.7,41.2-34.7,71V274C345.2,279.3,340.9,283.4,335.6,283.4 M1263.1,2.6
		c74.5,0,114.8,63.9,114.8,145.3c0,78.6-44.5,140.9-114.8,140.9c-73.1,0-112.9-64-112.9-143.6C1150.2,65,1190.5,2.6,1263.1,2.6
		 M1263.6,55.2c-37,0-39.3,50.4-39.3,81.8c0,31.5-0.5,98.7,38.9,98.7c38.9,0,40.7-54.2,40.7-87.2c0-21.7-0.9-47.7-7.5-68.3
		C1290.7,62.2,1279.5,55.2,1263.6,55.2 M1474.5,283.4h-50c-5-0.4-9-4.4-9-9.3l-0.1-257.6c0.4-4.7,4.6-8.4,9.7-8.4h46.5
		c4.4,0.2,8,3.2,9,7.2v39.4h0.9c14-35.2,33.7-52,68.4-52c22.5,0,44.5,8.1,58.6,30.4c13.1,20.6,13.1,55.3,13.1,80.2v162.1
		c-0.6,4.5-4.7,8.1-9.7,8.1h-50.3c-4.6-0.4-8.4-3.7-8.9-8.1v-140c0-28.2,3.2-69.4-31.4-69.4c-12.2,0-23.4,8.2-29,20.6
		c-7.1,15.7-8,31.4-8,48.8v138.7C1484.2,279.3,1479.8,283.4,1474.5,283.4 M805.8,160.4c0,19.6,0.5,35.9-9.4,53.2
		c-8,14.1-20.7,22.8-34.7,22.8c-19.3,0-30.6-14.7-30.6-36.4c0-42.8,38.3-50.5,74.7-50.5V160.4z M856.4,282.7
		c-3.3,3-8.1,3.2-11.9,1.2c-16.7-13.8-19.7-20.3-28.8-33.5c-27.5,28.2-47,36.6-82.7,36.6c-42.3,0-75.1-26-75.1-78.2
		c0-40.7,22-68.5,53.5-82c27.2-12,65.3-14.1,94.4-17.4v-6.5c0-11.9,0.9-26-6.1-36.4c-6.1-9.2-17.8-13.1-28.2-13.1
		c-19.1,0-36.1,9.8-40.3,30.1c-0.8,4.5-4.2,9-8.8,9.2l-48.6-5.2c-4.1-0.9-8.7-4.2-7.5-10.5c11.2-59,64.5-76.8,112.2-76.8
		c24.4,0,56.3,6.5,75.6,25c24.4,22.8,22.1,53.2,22.1,86.3v78.2c0,23.5,9.7,33.8,18.9,46.5c3.2,4.5,3.9,10-0.2,13.3
		C884.7,258,866.5,273.9,856.4,282.7L856.4,282.7 M147.9,160.4c0,19.6,0.5,35.9-9.4,53.2c-8,14.1-20.6,22.8-34.7,22.8
		c-19.3,0-30.5-14.7-30.5-36.4c0-42.8,38.3-50.5,74.6-50.5V160.4z M198.5,282.7c-3.3,3-8.1,3.2-11.9,1.2
		c-16.7-13.8-19.6-20.3-28.8-33.5c-27.5,28.1-47,36.5-82.7,36.5C32.9,287,0,260.9,0,208.7c0-40.7,22.1-68.5,53.5-82
		c27.2-12,65.3-14.1,94.4-17.4v-6.5c0-11.9,0.9-26-6.1-36.4c-6.1-9.2-17.9-13.1-28.2-13.1c-19.1,0-36.2,9.8-40.4,30.1
		c-0.8,4.5-4.2,9-8.7,9.2l-48.7-5.2c-4.1-0.9-8.6-4.2-7.5-10.5C19.6,18,72.9,0.2,120.6,0.2c24.4,0,56.3,6.5,75.6,25
		c24.4,22.8,22.1,53.2,22.1,86.3v78.2c0,23.5,9.7,33.8,18.9,46.5c3.2,4.5,4,10-0.1,13.3C226.9,258,208.7,273.9,198.5,282.7
		L198.5,282.7"/>
</g>
</svg>
